# xmcd CD database file
#
# Track frame offsets:
#	150
#	15106
#	27649
#	42036
#	54658
#	68328
#	84192
#	96625
#	112337
#	132260
#	147523
#	162077
#	180248
#	198766
#	213479
#	232832
#	249332
#	262021
#	276223
#	290340
#	304989
#
# Disc length: 4215 seconds
#
# Revision: 0
# Processed by: cddbd v1.5.2PL0 Copyright (c) Steve Scherf et al.
# Submitted via: ACXtractor (MTCDDB.DLL V2003.07.15)
#
DISCID=24107515
DTITLE=Various Artist - LBS country collection Vol 7
DYEAR=2001
DGENRE=Country
TTITLE0=I'm Gon' Back to the Baccoo/ Jeff Brown
TTITLE1=Overnighter/ Keith Jamieson
TTITLE2=The One's Who Remain/ Brian Letton
TTITLE3=Cattle Camp Lady/ Charmaine Pout
TTITLE4=Cool Change/ Lindsay Waddington
TTITLE5=Life's Merry Go Round/ Matt Treman
TTITLE6=Brown Bottle Blue's/ Tom Maxwell
TTITLE7=You Can Never do Wrong in a Mothers Eyes/ Gail Smith
TTITLE8=Girl Back on the Land/ Peter Salata
TTITLE9=Jimmy and the Boss/ Billy Freeman
TTITLE10=Open Up Your Heart/ Janelle Makings
TTITLE11=Turning of the Wheels/ Rick Aitchison
TTITLE12=A Gypsy or a Drover/ Doug Jamieson
TTITLE13=The Young Balladeers/ Young Balladeers
TTITLE14=Till I Gain Control Again/ Shaza Leigh
TTITLE15=Men of Timber/ Jarrod Moore
TTITLE16=Back to the Bush Again/ Dean Perrett
TTITLE17=Tonight Somebody Else can sing the Blues/ Kerry James
TTITLE18=A bushman Can't Survive/ Lindsay Butler and Barry Thornton
TTITLE19=G'day Country/ Shane Hogan
TTITLE20=The Good Old Days/ Patti Morgan
EXTD=ID3G:   2 YEAR: 2001
EXTT0=
EXTT1=
EXTT2=
EXTT3=
EXTT4=
EXTT5=
EXTT6=
EXTT7=
EXTT8=
EXTT9=
EXTT10=
EXTT11=
EXTT12=
EXTT13=
EXTT14=
EXTT15=
EXTT16=
EXTT17=
EXTT18=
EXTT19=
EXTT20=
PLAYORDER=
